<svg xmlns="http://www.w3.org/2000/svg" width="24.947" height="20.262" viewBox="0 0 24.947 20.262">
  <path id="Icon_awesome-twitter" data-name="Icon awesome-twitter" d="M22.382,8.43c.016.222.016.443.016.665A14.447,14.447,0,0,1,7.851,23.642,14.448,14.448,0,0,1,0,21.347a10.577,10.577,0,0,0,1.235.063,10.239,10.239,0,0,0,6.347-2.184A5.122,5.122,0,0,1,2.8,15.68a6.448,6.448,0,0,0,.966.079,5.407,5.407,0,0,0,1.345-.174,5.113,5.113,0,0,1-4.1-5.018V10.5a5.149,5.149,0,0,0,2.311.649A5.12,5.12,0,0,1,1.741,4.315a14.533,14.533,0,0,0,10.542,5.35,5.772,5.772,0,0,1-.127-1.171A5.118,5.118,0,0,1,21,5,10.066,10.066,0,0,0,24.25,3.761,5.1,5.1,0,0,1,22,6.578a10.25,10.25,0,0,0,2.944-.791A10.99,10.99,0,0,1,22.382,8.43Z" transform="translate(0 -3.381)" fill="#fff"/>
</svg>
