<svg xmlns="http://www.w3.org/2000/svg" width="13" height="13" viewBox="0 0 26.118 26.118">
  <path id="Path_35329" data-name="Path 35329" d="M204.71,26.118A13.059,13.059,0,1,1,215.672,5.974a.623.623,0,0,1-.211.877L213.3,8.1a.616.616,0,0,1-.311.084.623.623,0,0,1-.518-.278,9.328,9.328,0,1,0,0,10.306.621.621,0,0,1,.829-.194l2.161,1.247a.623.623,0,0,1,.211.877,13.03,13.03,0,0,1-10.962,5.975m.622-11.318a.622.622,0,0,1-.622-.622V11.939a.621.621,0,0,1,.622-.621h11.815a.621.621,0,0,1,.622.621v2.239a.622.622,0,0,1-.622.622Z" transform="translate(-191.651)" fill="#399d26"/>
</svg>
