<svg xmlns="http://www.w3.org/2000/svg" width="14.883" height="25.44" viewBox="0 0 14.883 25.44">
  <path id="Path_35332" data-name="Path 35332" d="M.621,25.938A.621.621,0,0,1,0,25.316V1.12A.621.621,0,0,1,.621.5h5.3c5.526,0,8.959,2.9,8.959,7.561S11.45,15.62,5.924,15.62H4.353a.623.623,0,0,0-.622.621v9.075a.621.621,0,0,1-.621.622ZM4.353,4.229a.623.623,0,0,0-.622.622v6.416a.623.623,0,0,0,.622.621H5.924c2.434,0,5.228-.435,5.228-3.829s-2.794-3.83-5.228-3.83Z" transform="translate(0 -0.498)" fill="#001950"/>
</svg>
