<svg xmlns="http://www.w3.org/2000/svg" xmlns:xlink="http://www.w3.org/1999/xlink" width="186.906" height="26.23" viewBox="0 0 186.906 26.23">
  <defs>
    <clipPath id="clip-path">
      <rect id="Rectangle_1047" data-name="Rectangle 1047" width="186.906" height="26.23" fill="#fff"/>
    </clipPath>
  </defs>
  <g id="Mask_Group_3498" data-name="Mask Group 3498" clip-path="url(#clip-path)">
    <path id="Path_15850" data-name="Path 15850" d="M129.35,26.436c-5.864,0-9.506-3.642-9.506-9.506V1.12A.621.621,0,0,1,120.465.5h2.488a.622.622,0,0,1,.622.622V16.93c0,3.778,2,5.775,5.775,5.775s5.775-2,5.775-5.775V1.12A.622.622,0,0,1,135.747.5h2.488a.621.621,0,0,1,.621.622V16.93c0,5.864-3.642,9.506-9.506,9.506" transform="translate(-49.523 -0.206)" fill="#fff"/>
    <path id="Path_15851" data-name="Path 15851" d="M287.083,26.118a13.059,13.059,0,1,1,13.059-13.059,13.073,13.073,0,0,1-13.059,13.059m0-22.386a9.328,9.328,0,1,0,9.328,9.328,9.339,9.339,0,0,0-9.328-9.328" transform="translate(-113.236 0)" fill="#fff"/>
    <path id="Path_15852" data-name="Path 15852" d="M70.027,26.021c-3.366,0-5.375-2-5.375-5.341V1.12A.621.621,0,0,1,65.273.5h2.488a.621.621,0,0,1,.621.622V20.68c0,1.279.339,1.61,1.645,1.61h.695a.621.621,0,0,1,.621.622V25.4a.621.621,0,0,1-.621.622Z" transform="translate(-26.716 -0.206)" fill="#fff"/>
    <path id="Path_15853" data-name="Path 15853" d="M.621,25.938A.621.621,0,0,1,0,25.316V1.12A.621.621,0,0,1,.621.5h5.3c5.526,0,8.959,2.9,8.959,7.561S11.45,15.62,5.924,15.62H4.353a.623.623,0,0,0-.622.621v9.075a.621.621,0,0,1-.621.622ZM4.353,4.229a.623.623,0,0,0-.622.622v6.416a.623.623,0,0,0,.622.621H5.924c2.434,0,5.228-.435,5.228-3.829s-2.794-3.83-5.228-3.83Z" transform="translate(0 -0.206)" fill="#fff"/>
    <path id="Path_15854" data-name="Path 15854" d="M204.71,26.118A13.059,13.059,0,1,1,215.672,5.974a.623.623,0,0,1-.211.877L213.3,8.1a.616.616,0,0,1-.311.084.623.623,0,0,1-.518-.278,9.328,9.328,0,1,0,0,10.306.621.621,0,0,1,.829-.194l2.161,1.247a.623.623,0,0,1,.211.877,13.03,13.03,0,0,1-10.962,5.975m.622-11.318a.622.622,0,0,1-.622-.622V11.939a.621.621,0,0,1,.622-.621h11.815a.621.621,0,0,1,.622.621v2.239a.622.622,0,0,1-.622.622Z" transform="translate(-79.196 0)" fill="#399d26"/>
  </g>
</svg>
